<svg viewBox="0 0 46 21" fill="currentColor" xmlns="http://www.w3.org/2000/svg"><path d="M45.16.049L31.157 0c-4.44 0-8.364 1.998-10.08 5.68C19.363 1.997 15.44 0 10.997 0 5.034 0 0 3.6 0 10.049s5.034 10.048 10.997 10.048c4.443 0 8.366-1.996 10.08-5.68 1.716 3.684 5.64 5.68 10.08 5.68 5.965 0 10.999-3.587 10.999-10.049 0-2.301-.644-4.238-1.74-5.78L45.16.048zM10.997 15.05c-2.983 0-5.032-2.057-5.032-5.002 0-2.897 2.05-5 5.032-5 2.983 0 5.034 2.11 5.034 5 0 2.945-2.051 5.002-5.034 5.002zm20.16 0c-2.98 0-5.032-2.057-5.032-5.002 0-2.897 2.051-5 5.032-5 2.98 0 5.033 2.11 5.033 5 0 2.945-2.05 5.002-5.033 5.002z"/></svg>