<svg viewBox="0 0 1305 1927" fill="none" xmlns="http://www.w3.org/2000/svg">
<path fill-rule="evenodd" clip-rule="evenodd" d="M674.833 1916.07C691.94 1919.67 709.504 1921.49 727.033 1921.49C755.379 1921.49 783.183 1916.81 809.671 1907.59L809.926 1907.5L810.187 1907.43C825.41 1903.6 843.335 1894.2 849.065 1881.81C851.741 1876.02 851.464 1870.12 848.221 1863.77L847.099 1861.57L847.891 1859.23C859.961 1823.72 789.78 1783.29 743.341 1756.53C729.146 1748.35 716.888 1741.29 708.672 1735.43L696.372 1726.66L711.437 1724.78C714.274 1724.42 715.618 1721.62 715.497 1719.73C715.312 1716.85 711.95 1716.24 709.163 1716.24C706.022 1716.24 700.433 1717.09 691.633 1721.12L688.547 1722.54L685.729 1720.66C681.362 1717.73 676.82 1714.56 671.841 1710.96L659.539 1702.07L674.695 1700.33C735.932 1693.29 855.992 1677 972.062 1647.03C1098.29 1614.44 1186.9 1574.67 1235.45 1528.8L1235.59 1528.67C1274 1494.71 1299.26 1441.91 1299.95 1394.14C1300.44 1360.34 1288.56 1331.05 1265.61 1309.41C1232.68 1285.59 1188.04 1274 1129.17 1274C1087.07 1274 1043.51 1279.61 1001.39 1285.02C973.669 1288.59 947.484 1291.96 923.253 1293.52L917.747 1293.88L916.927 1288.5C906.558 1220.5 903.63 1150.94 900.797 1083.67C898.114 1019.94 895.34 954.034 886.219 889.747C870.139 766.817 851.91 627.48 807.568 498.12C799.301 475.552 788.368 460.744 773.163 451.517C759.042 442.947 740.644 438.956 715.265 438.956C714.618 438.956 713.176 438.965 713.176 438.965L713.033 438.959C702.591 438.55 691.802 437.629 681.37 436.738C667.524 435.557 653.209 434.335 639.826 434.335C638.191 434.335 636.57 434.353 634.908 434.391C629.144 434.484 624.601 435.308 621.018 436.909L615.479 439.385L613.043 433.892C610.675 428.552 608.557 422.822 606.749 416.857L606.495 416.024L606.5 413.924V413.878C606.519 406.37 606.54 398.607 605.924 391.113C603.859 366.018 595.527 348.562 580.451 337.749C567.475 328.442 549.715 324.074 524.56 324.002L521.736 323.997C502.061 323.997 481.732 324.957 468.341 336.419C461.283 342.46 457.024 352.156 456.657 363.022C456.512 367.313 456.935 371.734 457.321 375.107L457.46 376.318L457.1 377.485C445.831 414.075 428.66 438.894 404.605 453.359L403.16 454.228L400.544 454.224C272.203 454.224 169.696 513.662 111.907 621.59L111.722 621.937L111.49 622.257C100.228 637.863 89.3955 654.628 79.2885 672.092C77.9485 674.923 76.1865 677.796 74.3235 680.832C66.4385 693.687 64.6125 699.063 70.0805 703.631L73.2835 706.305L71.8295 710.186C61.1985 738.563 51.2195 767.734 41.5675 795.944C37.2655 808.518 32.8185 821.518 28.3665 834.292C27.0715 838.761 25.2995 843.249 23.5845 847.591L23.5831 847.594C19.8307 857.097 16.2867 866.072 17.3545 874.657L17.4775 875.647L17.2655 876.622C15.2875 885.665 16.0505 894.489 19.3575 900.833L19.6435 901.381L19.8075 901.976C21.8545 909.35 29.7925 933.931 46.0005 940.59L46.9865 940.995L47.7695 941.712C59.0785 952.041 74.1825 960.513 93.9455 967.615L99.6425 969.662L97.5045 975.253C51.7465 1094.86 33.7455 1220.97 16.4865 1361.65C9.02554 1415.93 2.53754 1479.56 10.9875 1539.91C20.2655 1606.16 45.7995 1656.01 89.0515 1692.31L90.9435 1693.9L91.1405 1696.34C92.7085 1715.74 104.049 1744.68 128.867 1744.91L131.313 1744.93L133.047 1746.63C139.183 1752.66 145.883 1755.46 154.134 1755.46C165.421 1755.46 177.814 1750.11 189.801 1744.94L190.52 1744.63L190.67 1744.57C223.82 1732.3 260.763 1724.04 303.605 1719.34L306.065 1719.07L308.003 1720.58C308.644 1721.09 309.603 1721.37 310.637 1721.37C312.004 1721.37 313.342 1720.87 314.128 1720.07L315.357 1718.81L317.084 1718.41C320.052 1717.73 323.189 1717.4 326.678 1717.4C334.61 1717.4 342.837 1719.19 350.094 1720.77C355.941 1722.04 361.466 1723.25 365.577 1723.25C370.318 1723.25 370.993 1721.85 371.54 1719.56L372.522 1715.45L376.793 1715.03C392.161 1713.54 407.766 1711.32 422.855 1709.17C436.455 1707.23 450.517 1705.22 464.469 1703.74L478.306 1702.27L469.89 1713.19C459.876 1726.19 459.203 1747.03 468.254 1763.88L469.699 1766.57L468.316 1769.29C459.575 1786.49 461.961 1801.53 475.823 1816.62C488.459 1830.38 508.621 1841.66 524.823 1850.72C527.024 1851.95 529.168 1853.15 531.281 1854.35C572.665 1878.32 621.3 1904.83 674.833 1916.07ZM708.918 1294.84C719.823 1275.99 724.4 1253.68 722.161 1230.32C713.864 1185.19 712.219 1135.67 716.982 1074.51C718.318 1050.32 719.644 1026.13 720.969 1001.94C723.982 946.921 727.099 890.032 730.31 834.089L742.245 833.629C746.406 863.852 750.695 894.579 754.844 924.292C770.607 1037.21 786.907 1153.98 799.802 1269.24C800.048 1271.38 800.236 1273.55 800.418 1275.65C801.093 1283.45 801.73 1290.82 805.172 1296.9L809.452 1304.47L800.739 1305.64C787.13 1307.46 770.193 1309.73 753.906 1309.73C738.08 1309.73 724.412 1307.64 712.122 1303.34L705.37 1300.98L708.918 1294.84Z" fill="white"/>
<path fill-rule="evenodd" clip-rule="evenodd" d="M999.583 1278.86C1092.6 1266.9 1198 1253.34 1268.44 1304.57C1335.93 1367.74 1300.31 1478.14 1238.57 1532.72C1126.19 1638.87 829.644 1687.97 674.365 1705.82C678.875 1709.08 683.435 1712.28 688.075 1715.38C726.465 1697.78 725.924 1728.42 711.164 1730.26C719.143 1735.95 731.354 1742.98 745.346 1751.04C794.679 1779.46 866.172 1820.65 852.554 1860.71C866.345 1887.73 833.884 1906.9 810.643 1912.75C766.414 1928.15 718.394 1931.08 672.554 1921.43C620.415 1910.49 572.804 1885.44 527.215 1859.04C525.161 1857.88 523.026 1856.68 520.836 1855.46C487.017 1836.54 439.656 1810.06 461.924 1766.25C452.614 1748.92 451.724 1725.27 464.085 1709.24C434.755 1712.35 405.715 1717.69 376.355 1720.54C373.664 1731.8 361.753 1729.2 347.772 1726.16C337.847 1724 326.877 1721.61 317.424 1723.79C313.834 1727.46 307.275 1727.98 303.245 1724.83C265.655 1728.96 227.825 1736.36 191.755 1749.72L191.18 1749.97C169.966 1759.12 146.812 1769.12 127.785 1750.43C100.064 1750.18 86.0441 1720.06 84.1341 1696.43C-14.3059 1613.84 -6.19691 1474.82 9.51409 1360.53C25.5441 1229.9 43.5531 1096.56 90.8641 972.914C73.1241 966.541 56.1141 958.08 42.6641 945.796C26.8131 939.285 17.2541 918.639 12.9941 903.292C8.50409 894.683 8.41409 884.094 10.3741 875.14C9.11992 865.078 13.0891 855.03 16.9673 845.212C18.6892 840.853 20.3931 836.54 21.6141 832.29C36.0741 790.81 49.7541 749.084 65.1741 707.93C54.8345 699.293 61.938 687.715 68.1627 677.568C69.9751 674.614 71.7129 671.781 72.9241 669.178C82.9041 651.919 93.7941 634.958 105.575 618.635C165.775 506.223 272.313 447.86 400.454 448.146C435.643 426.987 449.775 384.778 457.525 347.002C470.064 395.574 440.184 459.355 386.954 474.426C394.594 485.369 400.545 497.496 407.445 508.893C443.144 565.927 528.335 590.395 589.965 563.523C625.234 544.837 633.144 501.84 631.865 465.837C615.755 483.006 601.885 439.122 599.554 427.972C596.335 412.408 596.965 396.185 602.885 381.32C603.295 380.286 604.674 380.483 604.794 381.567C606.714 398.637 610.515 415.58 617.515 431.36C622.495 429.134 628.264 428.405 633.784 428.316C648.939 427.96 664.899 429.322 680.854 430.684C691.398 431.584 701.939 432.483 712.245 432.887C763.285 432.493 794.285 447.032 812.205 495.989C855.625 622.606 873.854 756.6 891.143 888.753C909.914 1021.03 901.695 1155.25 921.835 1287.32C945.869 1285.77 972.188 1282.38 999.583 1278.86ZM623.625 443.141C622.375 441.004 621.184 438.817 620.044 436.601C623.904 436.748 627.665 436.886 631.465 437.517C631.354 441.513 631.46 445.53 631.567 449.555C631.624 451.691 631.68 453.829 631.705 455.967C629.804 451.455 626.085 447.338 623.625 443.141ZM23.6041 878.114C21.7331 896.091 31.4141 913.034 43.7331 926.302C64.0041 946.969 92.7841 955.923 120.125 963.488C188.564 982.134 256.984 1000.82 325.325 1019.8C351.095 1027.13 377.185 1033.35 402.655 1041.59C414.115 1045.25 428.605 1046.15 434.555 1057.87C434.617 1057.7 434.731 1057.38 434.889 1056.93C436.591 1052.06 443.364 1032.71 445.204 1040.8C437.854 1060.55 439.685 1082.84 442.825 1103.32C445.665 1121.84 448.885 1140.4 449.865 1159.15C449.312 1178.61 447.621 1198.06 445.93 1217.51C442.595 1255.85 439.261 1294.19 444.655 1332.71C465.415 1317.85 463.325 1287.55 469.075 1265.2C471.695 1251.95 474.585 1238.78 477.605 1225.61C479.465 1217.47 493.035 1219.24 492.415 1227.58C490.894 1248.23 490.605 1268.91 490.115 1289.61C490.439 1292.88 490.109 1298.19 489.74 1304.13C488.926 1317.23 487.926 1333.35 493.355 1337.05C503.539 1341.78 506.966 1321.92 509.212 1308.92C509.885 1305.01 510.452 1301.73 511.064 1299.91C515.455 1279.5 519.535 1259.03 523.304 1238.5C524.635 1231.3 536.364 1233.12 536.104 1240.2C535.274 1262.55 534.304 1284.89 533.405 1307.25C533.316 1309.4 533.148 1311.74 532.971 1314.19C532.027 1327.29 530.853 1343.56 540.534 1352.51C548.61 1344.83 549.07 1333.19 549.512 1322.02C549.688 1317.56 549.861 1313.17 550.515 1309.14C552.425 1287.33 554.335 1265.51 556.245 1243.69C556.955 1235.61 569.644 1235.42 569.215 1243.69C568.195 1272.55 569.015 1304 575.135 1331.11C575.495 1333.02 575.875 1334.92 576.265 1336.84C576.535 1336.51 576.794 1336.19 577.044 1335.86C576.154 1334.48 575.594 1332.92 575.414 1331.22C583.274 1330.97 585.404 1316.73 584.284 1309.74C585.034 1300.39 585.044 1290.88 585.414 1281.6C587.313 1233.82 587.275 1185.26 574.365 1138.79C555.215 1067.06 512.345 1031.21 456.505 986.999C381.935 924.579 300.465 869.722 221.575 813.683C216.535 814.717 213.255 810.423 213.925 805.792C217.035 791.165 235.445 777.995 244.385 765.338C237.938 766.836 231.951 763.03 226.365 759.479C224.863 758.524 223.39 757.587 221.945 756.778C215.435 753.123 208.845 749.597 202.185 746.197C165.984 727.295 127.605 712.904 88.5941 700.906C70.2541 748.128 54.6141 796.227 37.7641 843.962C33.4541 855.37 31.0041 868.244 23.6041 878.114ZM900.655 1289.74C879.945 1152.44 892.125 1012.56 870.775 875.1C863.925 819.564 854.053 764.559 844.174 709.515C807.614 715.947 772.264 728.704 740.914 748.414C740.354 765.83 739.504 783.236 738.534 800.641C744.954 829.385 750.553 858.167 756.094 887.068C778.684 1007.83 795.733 1129.58 811.174 1251.41C811.531 1257.4 812.487 1263.43 813.445 1269.48C815.221 1280.7 817.005 1291.95 814.984 1302.97C843.415 1297.73 871.925 1292.96 900.655 1289.74ZM728.085 1235.12C718.655 1184.01 718.915 1132.21 722.945 1080.54C727.375 1000.4 731.675 920.235 736.275 840.102C756.245 985.139 777.535 1130.01 793.814 1275.51C794.974 1285.63 794.795 1296.35 799.905 1305.38C771.665 1309.17 741.563 1312.98 714.104 1303.37C726.154 1282.54 730.405 1258.82 728.085 1235.12ZM84.1041 1680.2C10.7741 1607.76 -3.45591 1487.08 23.6341 1392.22C26.0441 1357.05 38.3441 1323.53 49.3641 1290.22C84.4541 1189.2 130.605 1092 185.955 1000.24C254.625 1019.1 323.175 1038.47 392.005 1056.71C401.484 1058.77 410.973 1062.84 420.704 1063.43C424.184 1065.65 427.675 1068.09 431.295 1070.23C427.41 1089.26 429.029 1108.59 430.642 1127.83C431.217 1134.7 431.791 1141.56 432.115 1148.39C433.234 1168.84 431.025 1188.86 428.314 1209.1C428.095 1211.22 427.828 1213.69 427.528 1216.45C423.681 1251.93 414.616 1335.53 437.805 1351.79C442.583 1354.09 447.075 1351.25 450.739 1348.92C453.569 1347.13 455.904 1345.65 457.495 1347.1C460.785 1344.8 463.855 1341.82 466.355 1338.53C476.005 1369.73 491.775 1398.68 501.515 1429.92C505.574 1444.3 512.54 1461.47 519.901 1479.61C536.036 1519.38 554.074 1563.84 547.585 1593.91C540.275 1620.95 508.295 1626.78 485.215 1635.62C458.545 1644.9 431.575 1653.41 404.165 1660.33C390.785 1631.93 377.995 1603.27 365.445 1574.49C308.085 1441.74 257.285 1306.22 211.885 1169.08C211.035 1166.04 200.595 1133.06 198.685 1142.26C198.525 1141.32 197.335 1138.87 196.885 1140.96C204.585 1173.16 212.394 1205.35 220.845 1237.38C200.085 1234.47 177.765 1233.34 158.765 1243.51C157.785 1244.04 158.505 1245.32 159.474 1245.17C178.557 1241.86 197.065 1246.66 215.431 1251.42C218.719 1252.27 222.003 1253.12 225.285 1253.93C255.635 1357.23 294.795 1457.92 336.245 1557.35C327.585 1554.59 317.985 1555.76 308.54 1556.91C304.004 1557.46 299.506 1558.01 295.165 1558.11C253.025 1562.47 211.365 1571.69 171.555 1586.03C121.515 1602.25 86.1341 1623.41 84.1041 1680.2ZM676.075 1693.37C677.905 1691.51 678.675 1689.06 676.965 1686.2C671.437 1679.14 660.941 1682.02 652.664 1684.29C651.044 1684.74 649.511 1685.16 648.115 1685.48C644.894 1682.8 641.695 1680.11 638.615 1677.27C639.337 1672.79 635.929 1669.32 632.63 1665.96C631.046 1664.35 629.488 1662.76 628.424 1661.1C625.204 1657.33 622.175 1653.04 618.314 1649.88C611.714 1644.73 603.327 1645.64 595.138 1646.52C591.649 1646.9 588.202 1647.27 584.945 1647.17C576.535 1636.47 567.875 1626.11 559.875 1615.06C569.095 1599.56 569.745 1581.41 566.685 1564.14C708.115 1510.48 830.535 1408.87 983.495 1385.39C988.755 1384.51 991.704 1378.12 990.393 1373.43C979.723 1347.97 826.394 1413.67 803.474 1425.57C735.875 1457.93 672.553 1498.28 606.854 1533.88C593.154 1541.16 578.084 1545.07 563.104 1548.85C540.084 1473.3 501.144 1404.04 471.285 1331.2C473.224 1327.84 474.875 1324.32 476.275 1320.69C475.285 1360.75 514.245 1360.19 519.625 1322.19C517.405 1342 532.385 1384.42 554.005 1356.58C559.075 1349.59 560.875 1340.64 561.734 1331.61C562.845 1337.85 564.105 1344.07 565.505 1350.26C571.054 1362.53 586.205 1347.61 589.724 1341.21C591.755 1340.85 593.654 1339.92 595.044 1338.79C633.274 1344.1 678.303 1343.79 706.354 1313.61C744.592 1328.28 786.111 1320.6 825.919 1313.23C835.644 1311.43 845.267 1309.65 854.715 1308.22C878.209 1305.52 901.725 1302.48 925.266 1299.43C999.839 1289.79 1074.65 1280.12 1149.74 1281.11C1193.85 1283.67 1245.89 1290.8 1273.79 1328.43C1309.58 1382.69 1289.35 1455.96 1249.87 1502.93C1154.9 1623.17 828.915 1675.46 676.075 1693.37ZM98.9041 1695.21C97.4441 1673.52 101.095 1646.52 117.165 1630.35C153.945 1599.26 205.445 1589.48 251.405 1578.22C272.814 1573.99 294.515 1571.18 316.305 1569.79C318.059 1569.65 319.921 1569.63 321.815 1569.61C328.267 1569.55 335.093 1569.49 339.314 1564.6C342.125 1571.26 344.974 1577.91 347.825 1584.56C256.325 1572.57 65.4241 1614.22 118.885 1739.57C107.564 1727.3 100.064 1712.37 98.9041 1695.21ZM317.704 1617.51C337.624 1613.27 359.175 1625.7 370.835 1640.89C372.905 1643.59 374.745 1646.45 376.355 1649.43C368.585 1632.15 360.915 1614.83 353.385 1597.46C273.655 1590.39 138.595 1601.55 121.495 1697.07C120.255 1713.22 124.685 1732.19 137.835 1743.06C150.719 1753.82 165.805 1747.38 179.974 1741.34C184.477 1739.42 188.887 1737.54 193.105 1736.26C217.925 1727.61 243.435 1721.26 269.325 1716.99C268.855 1697.48 268.325 1677.67 263.935 1658.71C272.655 1641.46 289.205 1708.67 288.974 1714.18C292.545 1713.74 296.105 1713.34 299.685 1712.97C299.025 1693.22 298.935 1673.29 301.665 1653.7C301.755 1652.9 302.825 1652.73 303.105 1653.51C306.974 1663.33 310.045 1673.53 312.715 1683.76C316.355 1692.64 313.775 1705.46 324.095 1710.01C334.525 1714.37 346.035 1715.05 356.945 1717.99C359.095 1717.89 361.205 1717.63 363.224 1717.14C366.635 1716.31 365.785 1711.66 362.894 1711.18C363.144 1710.56 363.335 1709.85 363.545 1709.05C364.115 1709.01 364.695 1708.98 365.275 1708.94C363.776 1702.8 365.341 1696.59 366.923 1690.31C368.413 1684.4 369.917 1678.43 368.894 1672.41C367.965 1644.96 344.464 1623.74 317.704 1620.1C316.393 1619.84 316.424 1617.79 317.704 1617.51ZM569.585 1653.21C562.855 1644.05 557.705 1634.03 553.495 1623.51C529.175 1647.3 487.175 1656.26 455.465 1668.23C457.906 1670.81 460.317 1673.39 462.699 1675.94C496.857 1712.49 524.931 1742.53 551.294 1673.56C555.694 1665.61 561.935 1658.21 569.585 1653.21ZM385.795 1670.42C385.165 1671.75 384.265 1673.15 384.245 1674.75C383.605 1669.25 382.354 1663.81 380.454 1658.6C382.233 1662.54 384.015 1666.48 385.795 1670.42ZM683.945 1735.39C682.215 1735.79 680.474 1736.22 678.745 1736.68C667.515 1739.69 656.624 1743.84 646.034 1748.56C645.154 1748.95 644.435 1748.01 645.025 1747.28C651.845 1738.99 660.325 1731.36 669.765 1725.13C660.045 1717.75 650.665 1709.77 642.135 1701.19C630.365 1704.21 619.535 1708.89 608.635 1714.51C599.575 1714.5 630.275 1691.77 633.224 1691.62C624.635 1682.08 618.314 1671.1 610.984 1660.67C610.755 1661.57 610.335 1662.6 609.865 1663.32C603.365 1657.46 593.415 1658.56 585.635 1663.82C570.885 1668.7 565.405 1685 559.125 1697.08C540.915 1736.9 504.765 1739.69 476.285 1707.66C446.224 1762.6 519.314 1795.15 560.984 1811.67C593.785 1826.05 630.084 1842.07 663.044 1856.57C673.244 1861.19 683.355 1865.97 694.554 1867.67C724.995 1873.99 756.563 1873.03 787.044 1867.48C796.473 1865.77 805.814 1863.6 815.064 1861.1C820.375 1859.66 828.774 1858.65 832.284 1854.2C839.358 1828.69 775.138 1790.95 727.591 1763C708.395 1751.71 691.917 1742.03 683.945 1735.39ZM388.365 1706.95C390.984 1706.66 393.605 1706.35 396.224 1706.02C419.835 1703.07 443.314 1698.88 467.015 1696.78C460.505 1688.36 455.204 1679.21 450.204 1669.92C437.524 1673.92 424.775 1677.68 411.945 1681.16C402.965 1684.42 388.825 1687.86 384.445 1676.54C385.255 1684 384.695 1691.59 383.185 1698.94C386.545 1700.02 388.635 1703.49 388.365 1706.95ZM819.265 1891.47C713.234 1939.1 600.984 1886.06 510.564 1829.52C489.695 1817.87 462.245 1801.35 466.465 1773.92C481.835 1796.4 507.175 1809.21 531.495 1820.31C572.355 1838.78 613.484 1856.66 654.445 1874.9C658.314 1887.74 676.814 1888.23 687.995 1891.08C737.765 1900.73 791.264 1895.93 838.104 1876.68C835.393 1884.71 826.525 1888.4 819.265 1891.47Z" fill="black"/>
<path d="M539.041 20.2596C595.822 20.2596 654.551 64.2716 675.365 92.3568C692.864 115.969 702.286 222.746 702.286 294.905C702.286 309.997 710.614 338.446 708.184 352.882C699.278 405.781 660.475 450.146 583.677 450.146C506.878 450.146 451.815 419.705 394.733 337.973C367.036 337.973 353.613 316.733 353.418 283.214C353.223 249.695 380.152 237.5 380.152 237.5C380.152 237.5 370.551 105.221 394.733 70.7816C418.914 36.3424 482.26 20.2596 539.041 20.2596Z" fill="white"/>
<path fill-rule="evenodd" clip-rule="evenodd" d="M621.456 7.28688C586.126 0.975877 550.996 -2.07412 515.146 1.55588C497.635 3.33688 480.196 6.21588 463.196 10.8269C448.246 14.8969 431.247 19.6859 418.347 28.8369C413.417 22.4869 405.537 17.1569 397.207 19.6669C388.357 22.3369 386.907 30.1059 388.657 38.1469C388.829 38.9314 389.021 39.4032 389.146 39.7125C389.343 40.1968 389.378 40.2827 388.925 40.5471L388.417 40.8269C386.727 41.7469 384.716 41.9169 383.027 43.0259C379.966 45.0369 377.937 48.3659 377.046 51.8769C375.097 59.5259 378.836 66.1759 383.557 71.8269C366.907 95.9169 357.527 124.337 353.827 153.287C351.857 168.667 351.457 184.457 352.937 199.897C353.636 207.207 354.407 214.647 355.987 221.827C357.336 227.966 359.417 233.797 361.707 239.606L362.006 240.386C353.836 247.547 348.847 258.547 347.517 269.167C345.307 286.766 350.307 308.337 360.317 323.087C363.296 327.466 366.817 331.317 370.937 334.417C369.457 337.287 368.267 340.336 367.187 343.135L366.794 344.15C364.891 349.058 362.714 354.843 364.827 359.936C367.147 365.547 373.376 366.726 378.447 364.087C379.087 363.755 379.72 363.399 380.351 363.033C381.577 363.052 382.834 362.887 384.092 362.605C385.426 367.075 388.171 371.184 391.749 373.629C398.548 378.276 408.424 377.832 415.252 373.184C422.145 384.313 430.825 394.421 440.437 403.266L440.657 403.47C441.037 403.822 441.426 404.186 441.823 404.559C446.905 409.324 453.361 415.378 460.585 412.497C467.626 409.696 466.465 401.247 462.186 396.407C457.786 391.446 451.806 387.536 447.016 382.885C441.947 377.975 437.027 372.987 432.376 367.676C427.447 362.047 422.586 356.346 417.577 350.797C414.867 347.787 412.067 344.837 409.407 341.776C408.367 340.183 407.251 338.651 406.181 337.221L404.626 335.157C404.777 334.926 404.937 334.707 405.077 334.466C407.167 330.987 405.037 327.146 401.577 325.855C396.347 323.916 390.777 324.556 385.636 322.497C380.457 320.426 376.537 316.206 373.676 311.536C367.176 300.916 363.327 286.956 363.437 274.536C363.527 263.925 367.886 252.386 377.376 246.787C381.543 244.33 388.346 243.214 394.394 244.233C396.939 246.436 399.707 248.484 402.02 250.939L401.727 251.667C401.477 252.297 402.477 252.897 402.897 252.346L403.068 252.124C403.74 252.936 404.365 253.791 404.902 254.722C407.594 259.394 408.721 264.323 414.424 266.281C418.082 267.537 421.545 266.638 425.044 265.729C426.547 265.339 428.056 264.947 429.591 264.723C433.865 264.1 435.809 258.87 434.991 255.212C432.457 243.874 430.126 232.516 427.319 221.238L426.345 217.421C433.148 205.805 439.392 193.842 445.376 181.766C445.557 184.037 445.767 186.317 446.017 188.587C446.447 192.446 451.786 196.237 454.906 192.266C465.175 179.186 475.476 166.436 484.056 152.127C489.776 142.587 494.835 132.587 499.316 122.356C499.776 123.886 500.276 125.407 500.816 126.886C502.585 131.647 506.976 135.056 512.236 133.616C517.206 132.257 520.246 127.556 522.516 123.306L524.817 118.981C526.345 116.094 527.863 113.2 529.376 110.306C536.956 120.067 546.266 128.276 557.045 134.547C559.755 136.127 563.986 134.787 564.635 131.466C566.326 122.846 568.005 114.237 569.686 105.627C584.076 116.067 599.236 125.356 615.106 133.417C618.686 135.237 623.196 133.026 623.206 128.766C623.215 121.946 623.766 115.186 625.085 108.497C632.026 113.827 639.795 117.827 648.166 120.426C656.166 122.917 664.826 124.077 673.175 123.266C673.246 123.257 673.326 123.247 673.396 123.247L674.616 123.946L674.848 124.073C677.084 125.239 679.218 124.691 680.706 123.356C684.726 153.657 691.576 183.476 694.156 214.037C695.566 230.726 696.266 247.516 696.056 264.276C695.946 272.356 695.635 280.426 695.125 288.497C694.666 295.596 693.465 302.776 692.956 309.897C691.146 311.856 690.226 314.605 691.096 317.566C693.686 326.336 697.795 334.256 698.715 343.536C699.616 352.685 698.826 361.957 696.536 370.846C692.045 388.237 681.835 404.397 667.675 415.497C638.175 438.616 596.856 447.337 560.096 442.196C538.835 439.216 519.266 433.096 502.396 419.377C501.936 418.997 501.146 419.476 501.516 420.056C525.096 456.707 571.786 465.577 612.135 458.987C655.726 451.866 699.125 424.466 713.505 381.047C717.316 369.556 719.027 357.096 717.947 345.016C717.077 335.257 715.016 324.446 709.896 315.737C711.396 307.476 711.416 298.706 711.816 290.355L711.947 287.46C712.271 279.734 712.398 272.001 712.335 264.276C712.206 247.167 711.146 230.087 708.996 213.106C705.98 189.239 701.786 164.745 693.5 141.931C695.723 141.443 697.829 139.454 698.027 137.046C698.62 129.833 697.616 122.775 695.49 116.024C700.588 113.692 704.985 110.117 706.005 104.147C706.516 101.127 706.045 98.1469 704.816 95.6159C713.286 87.6269 720.476 76.3059 719.916 65.1469C719.536 57.7569 714.156 52.2069 706.916 51.2469C705.556 51.0669 704.186 51.0369 702.826 51.1269C703.496 49.5559 704.085 47.9459 704.436 46.2659C705.806 39.6859 703.375 32.5369 697.175 29.2969C692.304 26.7511 686.903 27.5418 681.904 29.1456L681.175 29.3859C681.755 28.3459 682.326 27.3059 682.875 26.2369C685.625 20.8559 682.206 14.8969 676.175 14.5669C659.556 13.6569 642.896 12.4359 626.255 11.6759C625.686 9.54688 624.156 7.77588 621.456 7.28688ZM388.067 261.738C381.956 260.667 375.746 264.707 375.807 271.257C375.817 272.207 377.216 272.408 377.466 271.477L377.527 271.288C378.21 269.445 381.078 268.822 382.626 269.267C383.429 269.496 384.096 269.979 384.718 270.509L385.126 270.867C387.017 272.527 388.227 274.727 389.607 276.797L389.922 277.273C392.959 281.892 395.927 286.864 400.557 289.967C407.307 294.467 414.536 285.828 411.116 279.408C408.783 275.057 404.289 271.745 400.375 268.672L398.808 267.432C395.594 264.901 392.17 262.452 388.067 261.738Z" fill="black"/>
<path fill-rule="evenodd" clip-rule="evenodd" d="M521.925 207.674C531.747 197.652 557.359 187.954 564.078 206.461C565.358 209.986 562.633 214.739 558.963 215.47C555.647 216.13 552.537 215.631 549.413 215.131C546.875 214.724 544.327 214.315 541.651 214.525C536.818 214.906 531.777 216.521 527.913 219.515C517.211 227.807 514.857 241.832 507.4 252.386C507.037 252.9 506.332 252.684 506.265 252.078C504.567 236.713 511.167 218.65 521.925 207.674ZM670.471 197.745C663.919 195.703 656.538 195.506 650.02 197.808C646.872 198.92 644.005 200.401 641.378 202.451C638.79 204.471 637.676 206.526 635.743 209.03C635.356 209.532 635.994 210.224 636.537 210.063C646.738 207.047 660.631 209.086 669.104 215.486C672.689 218.195 675.646 221.883 677.372 226.051C679.985 232.361 680.902 238.306 688.45 240.49C691.823 241.467 695.549 240.407 698.02 237.961L698.635 237.351L698.843 237.14C703.439 232.335 701.245 225.58 696.11 222.615C695.161 220.84 694.283 217.859 693.448 216.416C691.876 213.693 689.916 211.135 687.798 208.817C683.13 203.711 677.071 199.803 670.471 197.745ZM662.036 240.581C678.692 239.801 689.053 257.987 685.223 272.888C684.561 275.459 681.685 277.983 678.909 277.694L678.209 277.63C677.854 277.595 677.497 277.551 677.169 277.46C674.533 276.73 672.17 273.988 672.362 271.146L672.413 270.318C672.801 263.279 672.038 255.169 663.673 253.464C656.578 252.018 652.617 258.847 652.533 265.133C652.517 266.249 651.263 267.028 650.276 266.428C645.147 263.307 644.259 257.098 646.218 251.751C648.701 244.976 654.915 240.914 662.036 240.581ZM569.5 257.614C563.631 246.898 550.554 240.437 538.433 244.481C531.827 246.684 526.593 252.279 523.9 258.57C521.847 263.364 520.812 271.74 526.571 274.523C527.335 274.892 528.099 274.803 528.736 274.244C534.158 269.488 533.934 261.324 541.664 258.626C548.281 256.316 555.545 260.67 557.335 267.269L557.402 267.5C558.977 272.605 566.078 274.725 569.87 270.578C572.294 267.927 572.916 265.723 573.329 262.227C573.615 259.797 571.559 258.21 569.5 257.614ZM656.214 283.968C654.264 261.883 623.473 269.066 611.201 276.094C610.352 276.58 610.675 278.096 611.722 278.016C614.163 277.83 616.587 277.501 619.011 277.172C623.151 276.611 627.287 276.051 631.495 276.202C635.964 276.364 643.1 277.276 644.777 282.268C646.672 287.911 640.562 292.222 635.979 293.569L635.713 293.646C631.466 294.876 623.455 296.779 619.649 294.196C612.243 289.166 604.338 300.174 610.298 306.314C617.459 313.691 632.126 309.849 640.401 306.447L640.732 306.308C649.555 302.551 657.11 294.131 656.214 283.968ZM549.347 317.476C562.008 315.939 574.382 318.401 586.738 320.858C591.111 321.728 595.482 322.597 599.863 323.289C608.711 324.685 617.57 325.727 626.523 326.115C628.324 326.193 630.127 326.239 631.929 326.276C632.096 324.69 632.984 323.233 634.908 322.36C638.852 320.573 642.008 319.767 646.338 319.939C650.301 320.096 654.278 320.503 658.181 321.217C665.268 322.517 672.386 325.465 677.57 330.588C689.567 342.441 687.741 361.48 678.471 374.39C659.319 401.068 624.364 402.306 594.426 401.958L591.663 401.922C588.615 401.878 585.421 401.89 582.133 401.903H582.121C556.006 402.003 524.018 402.125 513.02 374.583C508.466 363.178 509.098 349.959 514.674 339.02C521.325 325.973 535.325 319.178 549.347 317.476ZM587.479 333.484L584.069 333.101C583.789 333.069 583.509 333.037 583.23 333.005C574.037 331.956 564.848 330.908 555.655 331.538C554.284 331.633 552.892 331.782 551.497 331.987C553.171 338.029 553.031 345.125 553.73 351.106C554 353.419 554.342 355.713 554.72 357.998L556.363 357.921C566.528 357.37 576.704 357.031 586.877 356.627C586.876 354.717 586.886 352.806 586.917 350.894L586.954 348.982C586.988 347.553 586.985 346.071 586.982 344.562C586.975 340.912 586.967 337.101 587.479 333.484ZM605.127 334.663C614.873 334.651 625.127 334.31 635.049 332.709C635.463 333.008 635.9 333.269 636.361 333.458L636.753 333.6C636.23 338.194 635.86 342.808 635.523 347.423L635.029 354.344L633.265 354.438C620.764 355.073 608.261 355.686 595.757 356.253L595.331 352.652C594.854 348.536 594.415 344.416 594.031 340.291C593.841 338.249 593.709 336.154 593.455 334.084C597.344 334.429 601.235 334.668 605.127 334.663ZM528.36 345.573C532.3 338.484 539.632 334.609 547.38 332.775C545.486 338.643 545.396 345.947 545.215 351.764L545.113 354.813C545.077 356.003 545.049 357.195 545.027 358.389C538.398 358.628 531.737 358.917 525.19 359.679C524.992 354.766 526.021 349.78 528.36 345.573ZM639.358 334.427C639.904 340.952 640.207 347.504 640.609 354.041L648.85 353.601C650.224 353.526 651.597 353.449 652.97 353.37C654.454 353.285 656.056 353.098 657.708 352.905C662.003 352.405 666.64 351.864 670.453 352.954C670.856 348.154 669.484 343.478 665.152 340.254C657.547 334.59 647.864 336.607 639.358 334.427ZM668.585 360.277C665.359 361.038 661.772 361.03 658.353 361.022C656.839 361.019 655.358 361.016 653.956 361.079C649.678 361.274 645.399 361.443 641.121 361.616C641.322 364.537 641.519 367.456 641.733 370.375C642.008 374.147 642.034 378.134 642.756 381.89C651.366 378.952 659.08 374.24 664.868 366.705C666.31 364.828 667.601 362.625 668.585 360.277ZM634.251 361.904L634.495 361.894C634.318 364.392 634.136 366.889 633.967 369.388C633.697 373.411 633.761 377.731 633.061 381.786C632.359 382.372 631.83 383.228 631.649 384.5L631.629 384.716C621.677 386.491 611.17 386.68 601.407 386.603C601.298 386.366 601.188 386.128 601.036 385.892C600.6 385.209 600.014 384.739 599.369 384.447L599.43 384.027C599.544 383.306 599.305 382.306 599.089 381.403C598.988 380.978 598.891 380.575 598.839 380.232C598.455 377.702 598.086 375.169 597.741 372.634C597.302 369.411 596.918 366.181 596.542 362.952C609.117 362.729 621.683 362.389 634.251 361.904ZM527.247 369.268C526.332 367.061 525.72 364.69 525.406 362.268C531.867 362.916 538.448 363.055 544.985 363.116C545.007 368.955 545.299 374.801 546.112 380.551C546.439 382.864 547.731 384.214 549.359 384.776C539.979 382.943 531.114 378.592 527.247 369.268ZM586.938 363.123C577.879 363.277 568.816 363.396 559.759 363.285L555.648 363.222C556.516 367.88 557.461 372.522 558.246 377.211C559.066 382.098 554.764 385.205 551.041 385.08C551.459 385.148 551.876 385.219 552.294 385.278C561.965 386.646 571.943 386.575 581.817 386.504C583.82 386.49 585.818 386.476 587.809 386.474C587.353 383.813 587.357 380.908 587.36 378.336C587.361 377.324 587.363 376.364 587.336 375.49L587.318 375.011C587.137 371.046 587.01 367.085 586.938 363.123Z" fill="black"/>
<path fill-rule="evenodd" clip-rule="evenodd" d="M688.388 350.08C690.922 354.427 693.06 359.041 694.758 363.805C695.556 366.042 701.542 390.261 697.755 404.138C694.111 417.497 687.519 430.166 679.18 441.287C671.52 451.499 661.863 459.987 649.899 464.682C634.289 470.81 615.674 469.087 599.386 467.505C579.043 465.523 559.049 460.998 539.705 454.451C530.028 451.188 520.531 447.424 511.173 443.35C501.975 439.356 492.198 435.421 483.58 430.246C476.17 425.791 469.848 418.783 463.796 412.708C454.259 403.137 444.931 393.156 436.692 382.425C429.002 372.415 423.25 363.144 421.302 350.48C418.29 330.846 421.091 310.217 423.765 290.521C423.981 288.928 424.197 287.341 424.408 285.761C424.488 285.101 425.527 284.75 425.747 285.431C425.727 285.061 425.707 284.691 425.687 284.321C425.617 282.738 427.924 282.529 428.353 283.959C433.606 301.339 442.185 317.155 454.518 330.519C471.502 348.913 493.206 361.679 514.282 374.949C514.989 374.282 515.848 373.808 516.758 373.628C519.805 359.921 529.88 347.179 539.845 338.508C569.016 313.141 615.754 302.239 651.876 317.705C667.146 324.252 680.009 335.706 688.388 350.08ZM583.836 340.189C563.492 345.286 545.821 359.226 537.725 378.193C537.113 382.332 537.163 386.521 538.04 390.674C555.307 402.809 576.513 409.186 597.735 406.714C604.346 398.511 611.665 384.523 622.782 382.909C631.011 381.715 636.836 387.137 642.687 392.584C645.693 395.382 648.706 398.187 652.056 400.104C652.606 400.419 653.206 400.725 653.827 401.023C660.161 400.498 666.515 399.018 671.84 395.401C677.296 391.697 679.362 386.683 680.334 380.792C680.056 379.668 679.757 378.549 679.439 377.439C677.202 369.631 674.017 362.013 669.333 355.357C665.398 349.74 660.165 344.954 653.744 342.423C646.224 339.46 637.665 338.828 629.686 338.057C614.456 336.576 598.777 336.456 583.836 340.189Z" fill="black"/>
<path fill-rule="evenodd" clip-rule="evenodd" d="M742.241 218.471C748.555 215.481 755.812 215.66 762.603 216.548C776.349 222.926 746.861 230.314 743.349 223.528C746.801 248.971 736.935 290.889 708.724 304.133C676.13 320.07 640.773 295.828 642.056 256.978C635.067 255.281 639.926 235.713 642.74 227.764C630.448 225.852 618.739 224.725 606.895 228.479C613.421 246.885 590.187 302.288 567.854 313.325C550.541 325.283 511.496 319.951 495.944 301.365C484.844 287.17 479.3 254.228 485.442 231.338C485.388 231.314 485.332 231.296 485.279 231.269C484.912 234.869 460.056 234.468 461.298 228.303C425.595 228.944 391.027 234.42 355.686 238.28C351.418 238.677 351.209 241.703 351.005 244.66C350.83 247.193 350.659 249.675 347.944 250.411C337.478 250.661 342.227 232.363 351.447 230.665C360.251 229.746 369.117 228.55 378.011 227.351C406.122 223.561 434.527 219.732 462.232 224.428C466.112 219.499 473.1 221.252 478.795 222.681C480.398 223.083 481.898 223.459 483.198 223.653C487.902 195.89 563.595 197.541 588.677 208.805C615.452 205.724 643.309 203.961 669.861 201.725C686.673 196.333 706.25 193.551 723.745 198.809C726.166 198.676 726.439 199.062 726.978 199.822C727.074 199.957 727.177 200.103 727.303 200.26C734.194 203.3 740.297 210.208 742.241 218.471ZM733.09 249.282C723.556 313.772 657.002 320.904 645.177 256.881C647.075 256.05 648.44 254.414 648.155 251.238C648.088 237.286 652.419 222.54 665.005 214.781C678.011 206.775 693.232 205.981 708.283 206.183C737.005 205.499 736.401 229.506 733.09 249.282ZM606.266 226.665C614.341 221.173 625.744 220.855 634.758 221.235C637.861 221.417 642.059 221.271 644.99 222.834C648.149 216.649 653.009 211.299 658.233 207.738C655.192 207.969 652.141 208.209 649.085 208.449C630.207 209.934 611.092 211.437 592.449 210.891C598.277 214.304 604.046 220.687 606.266 226.665ZM595.026 256.119C570.031 342.156 507.64 304.656 500.838 293.629C488.569 275.383 486.261 231.029 496.948 219.17C509.469 210.393 526.251 210.649 541.84 210.887C545.297 210.939 548.695 210.991 551.975 210.943C585.176 211.391 608.756 221.323 595.026 256.119Z" fill="black"/>
</svg>
