<?xml version="1.0" standalone="no"?>
<!DOCTYPE svg PUBLIC "-//W3C//DTD SVG 20010904//EN"
 "http://www.w3.org/TR/2001/REC-SVG-20010904/DTD/svg10.dtd">
<svg version="1.0" xmlns="http://www.w3.org/2000/svg"
 width="938.000000pt" height="938.000000pt" viewBox="0 0 938.000000 938.000000"
 preserveAspectRatio="xMidYMid meet">
<metadata>
Created by potrace 1.14, written by Peter Selinger 2001-2017
</metadata>
<g transform="translate(0.000000,938.000000) scale(0.100000,-0.100000)"
fill="#000000" stroke="none">
<path d="M4245 9374 c-620 -40 -1086 -120 -1603 -275 -254 -76 -502 -180 -616
-258 -24 -17 -48 -31 -52 -31 -3 0 -35 27 -70 59 -34 33 -93 74 -130 92 -60
30 -77 34 -144 33 -84 -1 -130 -17 -185 -66 -62 -54 -80 -99 -77 -203 1 -49 3
-105 4 -124 3 -33 1 -36 -48 -55 -28 -12 -62 -29 -77 -38 -42 -28 -86 -102
-104 -173 -27 -110 -1 -207 89 -336 l39 -57 -55 -84 c-298 -463 -482 -1016
-552 -1668 -43 -399 -6 -1041 76 -1321 11 -36 20 -71 20 -77 0 -6 -21 -14 -47
-17 -123 -16 -126 -17 -174 -62 -112 -105 -131 -288 -34 -329 69 -28 101 2
114 105 12 90 33 118 100 126 25 3 58 8 72 10 21 3 29 -2 38 -21 10 -23 7 -30
-35 -77 -119 -133 -200 -296 -235 -477 -17 -84 -17 -362 0 -465 53 -338 191
-635 379 -818 l80 -77 -40 -91 c-122 -284 -125 -421 -12 -499 47 -31 140 -33
199 -3 22 11 56 23 77 26 36 5 36 5 66 -56 42 -85 90 -138 159 -174 115 -62
258 -65 378 -7 29 13 55 24 58 24 4 0 28 -33 55 -72 132 -195 387 -478 552
-613 119 -97 219 -127 307 -90 l36 15 146 -143 c216 -212 292 -260 683 -431
785 -343 1294 -485 1978 -552 236 -24 573 -24 696 -1 386 71 668 277 926 677
65 100 137 233 169 310 12 30 55 99 96 152 223 294 351 595 399 935 12 89 15
161 11 293 -8 247 -46 436 -124 602 l-35 76 11 83 c6 45 11 101 11 125 0 42 1
43 72 90 276 184 478 549 559 1010 18 103 23 168 23 324 l1 195 35 -18 c29
-16 51 -18 135 -14 211 10 331 88 246 160 -62 51 -301 48 -432 -7 -12 -5 -19
5 -32 46 -32 103 -145 241 -231 285 -17 8 -39 23 -49 32 -24 21 -200 57 -368
77 l-47 5 -17 97 c-54 310 -124 612 -194 827 -21 66 -42 128 -45 137 -6 12 0
21 23 32 17 9 38 31 47 48 28 55 10 302 -31 439 -4 11 12 27 54 53 126 77 179
205 140 337 l-12 38 60 65 c194 206 285 479 217 644 -38 93 -141 165 -255 178
-32 4 -59 8 -59 9 0 1 7 22 15 45 8 24 15 76 15 119 0 122 -54 216 -152 265
-43 21 -66 26 -131 26 -43 0 -98 -5 -123 -11 -25 -6 -47 -10 -49 -7 -2 2 5 23
16 46 41 82 19 174 -51 216 -37 22 -85 26 -640 56 -217 12 -404 24 -416 26
-11 2 -26 15 -32 28 -6 14 -22 32 -34 40 -46 30 -674 119 -1028 146 -150 11
-699 21 -805 14z m872 -2191 c295 -206 775 -483 837 -483 35 0 73 19 90 44 9
14 16 66 21 141 6 118 21 259 32 302 5 21 8 20 77 -26 149 -101 356 -187 541
-227 45 -9 141 -18 220 -20 77 -2 152 -9 167 -15 27 -11 66 -9 98 5 13 6 19
-14 34 -121 10 -70 49 -312 87 -538 99 -596 128 -796 115 -800 -6 -2 -33 -6
-61 -10 -27 -4 -96 -17 -152 -30 l-101 -24 -61 24 c-88 34 -159 47 -264 46
-140 -1 -269 -44 -369 -123 l-41 -32 -331 -28 c-182 -15 -410 -36 -505 -47
l-175 -19 -65 25 c-81 30 -235 68 -366 88 -94 15 -103 19 -140 55 -81 79 -199
105 -342 76 -74 -15 -211 -64 -237 -85 -6 -5 -45 -12 -86 -16 -483 -43 -802
-188 -862 -392 -7 -24 -18 -43 -24 -43 -7 0 -52 9 -100 21 -98 23 -210 27
-246 9 -12 -7 -32 -21 -43 -30 -19 -17 -26 -17 -120 -4 -55 8 -211 17 -346 20
l-247 7 -11 37 c-17 57 -15 64 45 168 31 53 115 209 188 347 140 268 141 269
145 150 1 -50 31 -99 71 -120 62 -32 75 -22 252 206 319 410 436 591 615 947
67 133 125 242 130 241 4 -1 15 -21 24 -45 50 -129 127 -180 235 -153 81 20
152 102 248 286 43 83 82 157 86 164 6 9 16 3 36 -22 58 -70 212 -223 284
-282 120 -97 249 -177 287 -177 40 0 75 16 91 40 6 10 29 112 52 227 64 329
60 315 76 309 7 -3 58 -36 111 -73z m2878 -1954 c134 -45 221 -134 266 -270
22 -68 24 -89 23 -269 -1 -168 -5 -214 -28 -335 -15 -77 -39 -178 -53 -225
-32 -108 -108 -270 -170 -363 -49 -74 -180 -220 -192 -213 -3 2 -4 102 -1 223
7 279 -5 758 -25 984 -16 186 -41 411 -52 468 l-6 34 89 -7 c49 -4 116 -16
149 -27z m-521 -26 c3 -27 8 -79 12 -118 l7 -70 -51 75 c-28 41 -64 88 -81
104 -17 17 -31 33 -31 37 0 7 39 14 107 17 30 2 31 0 37 -45z m-787 -9 c22 -6
20 -10 -45 -78 -38 -40 -86 -100 -107 -134 -34 -56 -39 -60 -58 -50 -35 18
-270 29 -397 18 -127 -11 -218 -33 -299 -74 -29 -15 -54 -26 -55 -24 -2 2 -16
28 -32 58 -29 54 -150 187 -209 228 l-30 21 160 1 c88 0 241 5 340 11 99 5
232 12 295 15 63 2 144 9 180 14 65 8 211 5 257 -6z m-2727 -51 c0 -3 -22 -40
-49 -82 -91 -142 -151 -303 -177 -471 -20 -133 -17 -260 5 -260 12 0 89 136
163 291 88 183 134 253 215 330 107 102 231 146 383 135 303 -22 297 -23 347
30 l33 35 77 -11 c478 -70 679 -289 609 -660 -20 -109 -130 -435 -195 -581
-142 -318 -327 -534 -556 -649 -142 -71 -229 -92 -390 -93 -193 0 -340 38
-535 138 -101 53 -199 124 -249 181 -45 51 -123 216 -156 329 -108 378 -110
865 -4 1096 37 80 64 106 161 155 60 30 199 74 278 87 14 2 28 5 33 6 4 0 7
-2 7 -6z m3031 -80 c79 -60 132 -135 174 -247 75 -198 139 -254 283 -243 l72
5 0 -331 c0 -457 -23 -854 -51 -882 -6 -6 -65 -10 -137 -9 -109 0 -138 4 -207
27 -44 15 -109 43 -143 64 -114 68 -262 218 -262 267 0 60 -32 128 -86 184
-46 48 -59 70 -79 135 -14 43 -25 81 -25 85 0 3 18 -11 39 -32 53 -52 73 -46
84 24 24 171 147 248 282 178 80 -42 106 -103 114 -266 6 -120 7 -123 38 -153
63 -64 175 -44 209 36 41 98 23 272 -41 401 -129 262 -456 345 -646 164 -21
-20 -40 -35 -42 -34 -8 9 16 158 39 238 34 121 84 213 163 298 60 65 141 128
164 128 6 0 32 -17 58 -37z m-623 -224 c77 -11 83 -14 79 -33 -2 -12 -16 -64
-30 -116 -60 -225 -61 -379 -3 -434 20 -18 24 -35 30 -121 4 -54 9 -110 13
-124 l6 -24 -64 6 c-127 14 -350 -31 -501 -100 -59 -27 -78 -41 -78 -56 0 -17
5 -19 43 -13 216 30 343 38 426 27 141 -20 211 -72 211 -156 0 -98 -103 -177
-275 -210 -112 -22 -171 -19 -233 10 -66 31 -93 31 -142 4 -50 -29 -80 -83
-80 -148 0 -42 5 -56 31 -86 35 -39 73 -62 134 -80 36 -11 29 -12 -95 -19
-243 -13 -455 -51 -662 -120 -104 -35 -108 -36 -190 -25 -45 5 -103 12 -126
15 l-44 5 75 38 c240 121 423 334 615 717 174 348 277 743 244 939 -6 38 -8
73 -4 76 7 7 126 35 177 43 55 8 359 -2 443 -15z m-3535 -49 c18 -69 327 -106
458 -55 13 5 13 -5 -4 -82 -28 -126 -30 -490 -4 -648 44 -261 118 -479 207
-610 34 -50 121 -135 186 -182 130 -95 367 -181 577 -210 120 -17 120 -17 86
-32 -243 -106 -363 -209 -449 -387 -63 -128 -83 -216 -84 -374 0 -108 4 -151
21 -215 12 -43 20 -81 18 -83 -5 -5 -223 130 -435 271 -381 253 -636 471 -820
703 -172 216 -321 493 -405 754 -25 79 -48 101 -62 63 -4 -10 -13 -22 -20 -28
-14 -10 -48 -240 -80 -532 -30 -285 -18 -760 23 -866 3 -9 4 -17 2 -17 -11 0
-249 270 -300 340 -54 74 -55 75 -41 109 18 43 9 84 -27 119 -34 34 -74 47
-215 67 -131 19 -207 52 -282 119 -172 155 -313 540 -313 855 0 200 57 363
168 482 101 108 199 149 357 149 l90 0 78 -66 c42 -36 77 -73 77 -82 0 -10 10
-22 21 -27 12 -6 44 -50 71 -100 57 -104 78 -129 130 -156 63 -32 112 -32 246
-1 129 31 151 43 176 97 24 51 20 87 -40 357 -30 137 -53 252 -51 254 4 4 158
18 292 27 28 2 116 4 196 5 139 2 147 1 152 -18z m3907 -1335 c58 -59 173
-139 254 -175 111 -51 200 -71 339 -77 70 -3 127 -7 127 -9 0 -2 -9 -21 -20
-41 -32 -60 -26 -105 45 -308 85 -244 99 -323 92 -530 -5 -152 -30 -335 -47
-335 -4 0 -13 27 -20 60 -17 80 -93 254 -157 360 -28 47 -54 101 -58 120 -15
73 -76 174 -149 246 -76 77 -182 136 -301 170 -33 9 -95 34 -139 56 -160 80
-408 148 -611 167 -62 6 -75 9 -42 10 132 3 346 68 450 135 57 36 132 112 162
164 11 17 22 32 25 32 3 0 26 -20 50 -45z m-2215 -743 c-6 -5 -44 -36 -85 -69
-87 -70 -216 -203 -279 -286 -24 -32 -46 -56 -48 -53 -3 2 3 32 13 66 42 149
163 268 337 331 57 20 76 24 62 11z m1675 -92 c58 -6 110 -12 115 -14 7 -3 7
-52 -2 -156 -6 -84 -13 -154 -15 -156 -6 -6 -780 -39 -783 -34 -7 11 -39 350
-34 354 24 24 493 28 719 6z m331 -46 c144 -29 269 -96 364 -193 l49 -51 -54
0 c-30 0 -93 -4 -140 -9 -47 -6 -142 -13 -211 -16 l-127 -7 -6 118 c-4 66 -9
134 -12 152 l-5 33 38 -7 c21 -3 68 -12 104 -20z m-1191 -154 l0 -169 -32 -5
c-18 -3 -112 -8 -208 -11 -96 -3 -228 -8 -292 -12 l-118 -6 0 30 c0 26 11 38
82 91 84 62 231 144 328 182 59 23 208 69 228 69 9 1 12 -39 12 -169z m1598
-312 c-44 -84 -172 -210 -274 -270 -97 -57 -202 -100 -210 -87 -6 11 -36 391
-30 396 2 2 108 7 237 12 129 4 251 9 272 9 l38 2 -33 -62z m-652 -50 c-3 -46
-8 -128 -11 -183 -3 -58 -13 -116 -22 -138 -15 -35 -18 -37 -47 -30 -17 4 -69
8 -116 8 -77 0 -90 -3 -142 -32 -57 -33 -59 -33 -190 -33 -128 1 -134 1 -150
24 -10 14 -24 64 -33 112 -21 121 -46 326 -40 332 4 5 386 17 638 20 l119 2
-6 -82z m-942 -105 c4 -93 8 -199 9 -237 l3 -68 -311 5 c-170 4 -330 10 -355
15 l-45 8 36 16 c85 37 96 95 55 298 -13 63 -21 118 -19 123 2 4 143 7 313 7
l308 0 6 -167z m-825 -131 c6 -56 14 -89 26 -102 27 -30 13 -34 -47 -15 -115
37 -148 56 -148 82 0 29 46 125 103 213 l42 64 8 -79 c4 -44 11 -117 16 -163z
m2675 -3 c14 -51 14 -62 1 -114 -34 -127 -109 -217 -232 -275 -67 -32 -212
-69 -268 -70 -31 0 -161 79 -147 91 4 3 30 14 57 24 80 29 241 114 308 163 78
57 187 162 223 213 15 22 31 36 35 32 4 -4 14 -33 23 -64z m-1575 -485 c2 -2
-12 -23 -32 -47 l-36 -44 -88 -5 c-190 -11 -418 19 -610 81 l-88 29 425 -5
c234 -3 427 -7 429 -9z"/>
<path d="M4378 4491 c-122 -39 -220 -128 -285 -258 -58 -117 -59 -243 -1 -308
55 -64 93 -41 173 105 77 140 140 190 240 190 103 0 187 -62 240 -176 40 -87
76 -114 155 -114 50 0 56 3 96 45 66 69 87 180 41 223 -13 12 -28 22 -33 22
-6 0 -25 22 -42 49 -66 102 -185 187 -311 225 -73 22 -200 20 -273 -3z"/>
<path d="M1257 4137 c-78 -25 -137 -97 -137 -166 0 -35 13 -40 32 -13 21 30
57 44 92 38 42 -8 87 -56 176 -189 119 -180 191 -247 264 -247 73 0 137 58
152 138 9 46 -17 107 -70 168 -57 64 -249 214 -318 248 -64 30 -140 40 -191
23z"/>
</g>
</svg>
